<svg xmlns="http://www.w3.org/2000/svg" xmlns:xlink="http://www.w3.org/1999/xlink" width="429.00000000000006" height="91.93889778074713" viewBox="-4 0 373.9130434782609 80.1332239702468" class="looka-1j8o68f"><defs id="SvgjsDefs1443"></defs><g id="SvgjsG1444" featurekey="HKaMnE-0" transform="matrix(0.7896196246147156,0,0,0.7896196246147156,-5.295765798904408,5.119361408638195)" fill="#e0de0b"><g xmlns="http://www.w3.org/2000/svg"><path d="M53.591,95C29.104,95,9.182,75.076,9.182,50.59c0-24.487,19.923-44.409,44.409-44.409C78.079,6.181,98,26.103,98,50.59   C98,75.076,78.079,95,53.591,95z M53.591,11.616c-21.49,0-38.974,17.483-38.974,38.974s17.484,38.975,38.974,38.975   c21.491,0,38.974-17.484,38.974-38.975S75.082,11.616,53.591,11.616z"></path><path d="M53.591,29.009c-11.899,0-21.581,9.682-21.581,21.581c0,11.9,9.682,21.583,21.581,21.583   c11.9,0,21.582-9.683,21.582-21.583C75.173,38.69,65.491,29.009,53.591,29.009z M53.591,34.958c1.166,0,2.112,0.947,2.112,2.113   c0,1.166-0.946,2.112-2.112,2.112c-1.168,0-2.112-0.947-2.112-2.112C51.479,35.904,52.423,34.958,53.591,34.958z M40.07,52.703   c-1.165,0-2.112-0.947-2.112-2.113c0-1.167,0.947-2.112,2.112-2.112c1.169,0,2.113,0.945,2.113,2.112   C42.184,51.756,41.239,52.703,40.07,52.703z M53.591,66.223c-1.168,0-2.112-0.946-2.112-2.112c0-1.168,0.944-2.112,2.112-2.112   c1.166,0,2.112,0.944,2.112,2.112C55.703,65.276,54.757,66.223,53.591,66.223z M53.591,56.684c-3.365,0-6.094-2.727-6.094-6.094   c0-3.369,2.729-6.093,6.094-6.093c3.366,0,6.093,2.724,6.093,6.093C59.684,53.957,56.957,56.684,53.591,56.684z M67.11,52.703   c-1.165,0-2.111-0.947-2.111-2.113c0-1.167,0.946-2.112,2.111-2.112c1.166,0,2.113,0.945,2.113,2.112   C69.224,51.756,68.276,52.703,67.11,52.703z"></path><path d="M30.463,91.83h-7.794l-0.549-0.409C9.106,81.671,1.641,66.788,1.641,50.59c0-16.198,7.465-31.08,20.479-40.83l0.549-0.41   h7.794l-0.042,23.451l-1.223,5.51c-2.011,3.833-3.03,7.964-3.03,12.278c0,4.314,1.019,8.446,3.03,12.278l0.197,0.561l1.068,5.626   V91.83z"></path></g></g><g id="SvgjsG1445" featurekey="J3GnXt-0" transform="matrix(2.3993780612945557,0,0,2.3993780612945557,95.95201305683975,16.851408245425915)" fill="#ececda"><path d="M8 5.84 l6.06 14.16 l-2.24 0 l-1.42 -3.5 l-6.74 0 l-1.4 3.5 l-2.24 0 l6.24 -14.16 l1.74 0 z M4.34 14.82 l5.36 0 l-2.64 -6.5 l-0.04 0 z M17.56 5.84 l0 8.74 c0 1.16 0.32334 2.1134 0.97 2.86 s1.51 1.12 2.59 1.12 s1.9433 -0.37334 2.59 -1.12 s0.97 -1.7 0.97 -2.86 l0 -8.74 l1.92 0 l0 9.06 c0 0.97334 -0.23 1.8833 -0.69 2.73 s-1.1133 1.5133 -1.96 2 s-1.79 0.73 -2.83 0.73 c-1.6 0 -2.9134 -0.52334 -3.94 -1.57 s-1.54 -2.3434 -1.54 -3.89 l0 -9.06 l1.92 0 z M39.42 5.84 l0 1.8 l-4.56 0 l0 12.36 l-1.92 0 l0 -12.36 l-4.56 0 l0 -1.8 l11.04 0 z M47.96 5.48 c2.1066 0 3.8634 0.69998 5.27 2.1 s2.11 3.18 2.11 5.34 c0 1.3733 -0.31334 2.63 -0.94 3.77 s-1.51 2.0366 -2.65 2.69 s-2.4034 0.98 -3.79 0.98 c-1.3733 0 -2.6266 -0.32334 -3.76 -0.97 s-2.02 -1.54 -2.66 -2.68 s-0.96 -2.4034 -0.96 -3.79 c0 -2.1066 0.69 -3.8734 2.07 -5.3 s3.15 -2.14 5.31 -2.14 z M42.62 12.92 c0 1.6 0.49998 2.94 1.5 4.02 s2.28 1.62 3.84 1.62 c1.5333 0 2.8066 -0.53334 3.82 -1.6 s1.52 -2.4134 1.52 -4.04 c0 -1.6133 -0.5 -2.9566 -1.5 -4.03 s-2.2866 -1.61 -3.86 -1.61 c-1.52 0 -2.7866 0.53334 -3.8 1.6 s-1.52 2.4134 -1.52 4.04 z M63.18 5.84 c1.3733 0 2.4566 0.34 3.25 1.02 s1.19 1.66 1.19 2.94 c0 1.24 -0.39334 2.21 -1.18 2.91 s-1.8733 1.05 -3.26 1.05 l-3.16 0 l0 6.24 l-1.92 0 l0 -14.16 l5.08 0 z M62.620000000000005 12.08 c1 0 1.7433 -0.18336 2.23 -0.55002 s0.73 -0.94332 0.73 -1.73 c0 -1.52 -0.98666 -2.28 -2.96 -2.28 l-2.6 0 l0 4.56 l2.6 0 z M74.66 5.84 l6.06 14.16 l-2.24 0 l-1.42 -3.5 l-6.74 0 l-1.4 3.5 l-2.24 0 l6.24 -14.16 l1.74 0 z M71 14.82 l5.36 0 l-2.64 -6.5 l-0.04 0 z M87.64 5.84 c1.3867 0 2.4734 0.34666 3.26 1.04 s1.18 1.6667 1.18 2.92 c0 0.94666 -0.32334 1.7733 -0.97 2.48 s-1.4767 1.1267 -2.49 1.26 l-0.02 0 l4.02 6.46 l-2.4 0 l-3.6 -6.24 l-2.14 0 l0 6.24 l-1.92 0 l0 -14.16 l5.08 0 z M87.08 12.08 c1 0 1.7433 -0.18336 2.23 -0.55002 s0.73 -0.94332 0.73 -1.73 c0 -1.52 -0.98666 -2.28 -2.96 -2.28 l-2.6 0 l0 4.56 l2.6 0 z M103.86 5.84 l0 1.8 l-4.56 0 l0 12.36 l-1.92 0 l0 -12.36 l-4.56 0 l0 -1.8 l11.04 0 z M109.96 5.48 c1.84 0 3.2 0.54006 4.08 1.6201 l-1.56 1.42 c-0.24 -0.37334 -0.58 -0.67334 -1.02 -0.9 s-0.94666 -0.34 -1.52 -0.34 c-0.82666 0 -1.49 0.20334 -1.99 0.61 s-0.75 0.93 -0.75 1.57 c0 1.0667 0.70666 1.8133 2.12 2.24 l1.78 0.58 c1 0.32 1.7633 0.76666 2.29 1.34 s0.79 1.36 0.79 2.36 c0 1.3067 -0.46334 2.3634 -1.39 3.17 s-2.1034 1.21 -3.53 1.21 c-2.04 0 -3.5466 -0.65334 -4.52 -1.96 l1.58 -1.36 c0.30666 0.48 0.72666 0.85334 1.26 1.12 s1.1133 0.4 1.74 0.4 c0.78666 0 1.4533 -0.22666 2 -0.68 s0.82 -1.0133 0.82 -1.68 c0 -0.49334 -0.16666 -0.90668 -0.5 -1.24 s-0.93334 -0.63334 -1.8 -0.9 l-1.26 -0.42 c-1.2667 -0.42666 -2.1534 -0.97 -2.66 -1.63 s-0.76 -1.51 -0.76 -2.55 c0 -1.1067 0.44666 -2.0466 1.34 -2.82 s2.0466 -1.16 3.46 -1.16 z"></path></g></svg>